<svg width="158" height="78" viewBox="0 0 158 78" fill="none" xmlns="http://www.w3.org/2000/svg">
<path d="M148.372 49.6851C146.647 51.7135 145.351 54.0694 144.564 56.6089L142.436 63.3965C141.234 65.9677 139.07 67.9692 136.412 68.9678C133.755 69.9664 130.817 69.8819 128.235 68.7325C120.19 64.187 124.412 54.6647 129.961 50.2324C135.593 45.9163 142.443 43.4936 149.518 43.3147C149.993 43.3436 150.247 43.1206 150.69 43.6247C150.985 43.782 151.21 44.044 151.321 44.3596C151.433 44.6752 151.422 45.0215 151.291 45.331L149.958 47.3966L148.372 49.6851Z" fill="#FF8C19"/>
<path d="M133.657 59.0522C133.859 58.8747 134.123 58.7842 134.39 58.8005C134.657 58.8168 134.907 58.9387 135.083 59.1392C135.78 59.4202 135.494 60.1184 135.241 60.3414C132.208 64.0321 130.547 68.6526 130.541 73.4126C130.476 74.3628 130.223 74.5858 129.494 74.7799C129.247 74.751 129.02 74.6322 128.857 74.4462C128.693 74.2602 128.604 74.0201 128.607 73.7718C128.436 68.4249 130.233 63.1881 133.657 59.0522Z" fill="#F77518"/>
<path d="M31.3721 31.6851C29.6466 33.7135 28.3509 36.0694 27.5641 38.6089L25.4358 45.3965C24.2337 47.9677 22.0697 49.9692 19.4121 50.9678C16.7545 51.9664 13.8171 51.8819 11.2352 50.7325C3.18985 46.187 7.41175 36.6647 12.9606 32.2324C18.5933 27.9163 25.4426 25.4936 32.5178 25.3147C32.9931 25.3436 33.2467 25.1206 33.6899 25.6247C33.9852 25.782 34.2104 26.044 34.3215 26.3596C34.4326 26.6752 34.4217 27.0215 34.2908 27.331L32.9582 29.3966L31.3721 31.6851Z" fill="#FF8C19"/>
<path d="M16.6571 41.0522C16.8589 40.8747 17.1226 40.7842 17.39 40.8005C17.6574 40.8168 17.9067 40.9387 18.083 41.1392C18.7799 41.4202 18.4942 42.1184 18.2406 42.3414C15.2082 46.0321 13.5468 50.6526 13.5406 55.4126C13.4765 56.3628 13.2228 56.5858 12.4938 56.7799C12.2471 56.751 12.0203 56.6322 11.8568 56.4462C11.6932 56.2602 11.6044 56.0201 11.6073 55.7718C11.4363 50.4249 13.2328 45.1881 16.6571 41.0522Z" fill="#F77518"/>
<path d="M109.539 38.0487C107.009 35.0742 105.109 31.6193 103.955 27.8952L100.834 17.9414C99.0707 14.1708 95.8973 11.2357 92.0001 9.77126C88.1028 8.30683 83.7951 8.43074 80.0089 10.1162C68.2106 16.7821 74.4019 30.7464 82.5392 37.2462C90.7993 43.5756 100.844 47.1285 111.219 47.3908C111.916 47.3483 112.288 47.6754 112.938 46.9362C113.371 46.7056 113.701 46.3213 113.864 45.8585C114.027 45.3957 114.011 44.8878 113.819 44.434L111.865 41.4048L109.539 38.0487Z" fill="#FF8C19"/>
<path d="M87.9595 24.312C88.2555 24.5723 88.6421 24.705 89.0342 24.6811C89.4264 24.6572 89.7919 24.4786 90.0505 24.1845C91.0725 23.7724 90.6536 22.7486 90.2816 22.4215C85.8348 17.0092 83.3984 10.2333 83.3892 3.25296C83.2952 1.8595 82.9231 1.53242 81.8541 1.2478C81.4923 1.29017 81.1597 1.46439 80.9199 1.73714C80.6801 2.00989 80.5498 2.36201 80.5541 2.72623C80.3033 10.5673 82.9379 18.2468 87.9595 24.312Z" fill="#F77518"/>
<path d="M41.0085 63.8688C42.9283 61.612 44.37 58.9907 45.2454 56.1652L47.6135 48.6131C48.951 45.7523 51.3587 43.5254 54.3156 42.4143C57.2725 41.3032 60.5408 41.3972 63.4135 42.676C72.365 47.7336 67.6676 58.3284 61.4937 63.26C55.2266 68.0622 47.6059 70.7577 39.7338 70.9568C39.2049 70.9246 38.9228 71.1727 38.4296 70.6119C38.1011 70.4369 37.8506 70.1453 37.7269 69.7942C37.6033 69.4431 37.6155 69.0577 37.7611 68.7134L39.2437 66.4151L41.0085 63.8688Z" fill="#FF8C19"/>
<path d="M57.3802 53.4437C57.1556 53.6411 56.8623 53.7418 56.5648 53.7237C56.2672 53.7056 55.9899 53.57 55.7937 53.3469C55.0183 53.0342 55.3361 52.2574 55.6184 52.0093C58.9922 47.9029 60.8408 42.762 60.8477 37.4658C60.9191 36.4086 61.2013 36.1604 62.0124 35.9445C62.2869 35.9766 62.5392 36.1088 62.7212 36.3158C62.9032 36.5227 63.002 36.7899 62.9988 37.0662C63.189 43.0154 61.1901 48.8419 57.3802 53.4437Z" fill="#F77518"/>
</svg>
