<svg width="158" height="78" viewBox="0 0 158 78" fill="none" xmlns="http://www.w3.org/2000/svg">
<path d="M9.18798 49.6851C10.9134 51.7135 12.2092 54.0694 12.996 56.6089L15.1243 63.3965C16.3264 65.9677 18.4904 67.9692 21.148 68.9678C23.8055 69.9664 26.743 69.8819 29.3249 68.7325C37.3702 64.187 33.1483 54.6647 27.5994 50.2324C21.9667 45.9163 15.1174 43.4936 8.04227 43.3147C7.56696 43.3436 7.31336 43.1206 6.87011 43.6247C6.57486 43.782 6.34968 44.044 6.23857 44.3596C6.12746 44.6752 6.13838 45.0215 6.2693 45.331L7.60181 47.3966L9.18798 49.6851Z" fill="#FF8C19"/>
<path d="M23.903 59.0522C23.7011 58.8747 23.4375 58.7842 23.1701 58.8005C22.9027 58.8168 22.6534 58.9387 22.4771 59.1392C21.7801 59.4202 22.0658 60.1184 22.3195 60.3414C25.3518 64.0321 27.0132 68.6526 27.0195 73.4126C27.0836 74.3628 27.3373 74.5858 28.0663 74.7799C28.313 74.751 28.5397 74.6322 28.7033 74.4462C28.8668 74.2602 28.9557 74.0201 28.9528 73.7718C29.1238 68.4249 27.3272 63.1881 23.903 59.0522Z" fill="#F77518"/>
<path d="M126.188 31.6851C127.913 33.7135 129.209 36.0694 129.996 38.6089L132.124 45.3965C133.326 47.9677 135.49 49.9692 138.148 50.9678C140.806 51.9664 143.743 51.8819 146.325 50.7325C154.37 46.187 150.148 36.6647 144.599 32.2324C138.967 27.9163 132.117 25.4936 125.042 25.3147C124.567 25.3436 124.313 25.1206 123.87 25.6247C123.575 25.782 123.35 26.044 123.239 26.3596C123.127 26.6752 123.138 27.0215 123.269 27.331L124.602 29.3966L126.188 31.6851Z" fill="#FF8C19"/>
<path d="M140.903 41.0522C140.701 40.8747 140.437 40.7842 140.17 40.8005C139.903 40.8168 139.653 40.9387 139.477 41.1392C138.78 41.4202 139.066 42.1184 139.319 42.3414C142.352 46.0321 144.013 50.6526 144.019 55.4126C144.084 56.3628 144.337 56.5858 145.066 56.7799C145.313 56.751 145.54 56.6322 145.703 56.4462C145.867 56.2602 145.956 56.0201 145.953 55.7718C146.124 50.4249 144.327 45.1881 140.903 41.0522Z" fill="#F77518"/>
<path d="M48.021 38.0487C50.5513 35.0742 52.4515 31.6193 53.6053 27.8952L56.7265 17.9414C58.4893 14.1708 61.6627 11.2357 65.56 9.77126C69.4572 8.30683 73.7649 8.43074 77.5512 10.1162C89.3495 16.7821 83.1582 30.7464 75.0209 37.2462C66.7607 43.5756 56.7164 47.1285 46.3409 47.3908C45.6438 47.3483 45.2719 47.6754 44.6219 46.9362C44.1889 46.7056 43.8587 46.3213 43.6958 45.8585C43.5329 45.3957 43.5489 44.8878 43.7409 44.434L45.6949 41.4048L48.021 38.0487Z" fill="#FF8C19"/>
<path d="M69.6006 24.312C69.3046 24.5723 68.918 24.705 68.5258 24.6811C68.1337 24.6572 67.7681 24.4786 67.5096 24.1845C66.4875 23.7724 66.9065 22.7486 67.2785 22.4215C71.7253 17.0092 74.1617 10.2333 74.1709 3.25296C74.2649 1.8595 74.6369 1.53242 75.706 1.2478C76.0678 1.29017 76.4003 1.46439 76.6401 1.73714C76.88 2.00989 77.0102 2.36201 77.006 2.72623C77.2568 10.5673 74.6222 18.2468 69.6006 24.312Z" fill="#F77518"/>
<path d="M116.552 63.8688C114.632 61.612 113.19 58.9907 112.315 56.1652L109.947 48.6131C108.609 45.7523 106.201 43.5254 103.244 42.4143C100.288 41.3032 97.0193 41.3972 94.1466 42.676C85.1951 47.7336 89.8925 58.3284 96.0664 63.26C102.333 68.0622 109.954 70.7577 117.826 70.9568C118.355 70.9246 118.637 71.1727 119.13 70.6119C119.459 70.4369 119.71 70.1453 119.833 69.7942C119.957 69.4431 119.945 69.0577 119.799 68.7134L118.316 66.4151L116.552 63.8688Z" fill="#FF8C19"/>
<path d="M100.18 53.4437C100.404 53.6411 100.698 53.7418 100.995 53.7237C101.293 53.7056 101.57 53.57 101.766 53.3469C102.542 53.0342 102.224 52.2574 101.942 52.0093C98.5678 47.9029 96.7193 42.762 96.7123 37.4658C96.641 36.4086 96.3587 36.1604 95.5476 35.9445C95.2731 35.9766 95.0208 36.1088 94.8389 36.3158C94.6569 36.5227 94.5581 36.7899 94.5613 37.0662C94.371 43.0154 96.3699 48.8419 100.18 53.4437Z" fill="#F77518"/>
</svg>
