<svg width="124" height="122" viewBox="0 0 124 122" fill="none" xmlns="http://www.w3.org/2000/svg">
<path d="M45.3749 90.2613C46.403 74.8609 50.868 60.3416 50.868 60.3416L80.6328 50.782L88.8383 64.5403C88.8383 64.5403 87.2359 78.2701 86.2317 86.8305C82.5402 89.152 83.9095 111.822 79.4742 113.009C69.5954 115.652 54.1392 119.183 45.3749 115.54L45.3749 90.2613Z" fill="#8AA7FF"/>
<path d="M46.5938 85.9693C46.7266 85.9338 46.8546 85.864 46.9624 85.7685L53.8334 79.5108C54.1978 79.1777 54.225 78.6146 53.8919 78.2503C53.5587 77.8859 52.9957 77.8587 52.6313 78.1918L45.7603 84.4495C45.396 84.7826 45.3688 85.3456 45.7019 85.71C45.9342 85.9635 46.2826 86.0526 46.5938 85.9693Z" fill="#3D58D9"/>
<path d="M52.3634 78.3515C52.3634 78.3515 33.1645 96.9595 29.6191 99.6109C27.7779 100.988 26.0687 101.397 25.3728 100.258C24.8032 99.3255 24.7234 97.8308 24.7234 97.8308C20.3784 98.1085 17.7551 96.0138 17.6442 93.3892C17.4769 89.4904 23.5282 87.2978 24.5193 86.0501C27.1078 82.7966 33.7318 75.3335 39.047 69.4921C42.3247 65.8898 46.872 62.3968 52.6475 60.8516L52.3675 78.3504L52.3634 78.3515Z" fill="#8AA7FF"/>
<path d="M80.6935 48.5368C80.6935 48.5368 89.6642 40.4725 97.7474 33.9927C101.993 30.5849 104.075 29.8766 105.749 31.4118C106.361 31.9727 106.551 33.0155 106.656 33.9702C106.757 34.8989 107.087 35.033 107.915 35.1049C108.926 35.1945 113.943 35.3328 114.44 39.4013C114.665 41.2395 113.44 43.3766 111.127 44.6357C107.398 46.665 104.334 47.0446 102.902 48.308C101.411 49.6316 95.5455 56.3003 88.8383 64.666L83.5232 64.666L50.9298 58.1006L80.6946 48.5409L80.6935 48.5368Z" fill="url(#paint0_linear_23830_25397)"/>
<path d="M82.5693 51.6445L53.8322 59.6444C59.819 63.2266 69.3036 63.5967 75.9112 60.3928C82.6925 57.1068 82.5693 51.6445 82.5693 51.6445Z" fill="#3D58D9"/>
<path d="M48.1028 28.3582C46.921 27.763 46.0382 26.7898 45.7052 25.5451C45.1668 23.5329 46.236 21.3973 48.2202 20.1061C48.784 19.7374 49.4281 19.4361 50.129 19.2308C50.1954 19.2131 50.2618 19.1953 50.3323 19.1764C53.5935 18.3039 55.4592 19.6276 58.5653 21.2997C60.4458 22.3126 63.0859 23.2735 65.1631 23.9582L48.1081 28.3612L48.1028 28.3582Z" fill="#55F186"/>
<path d="M57.6358 26.9452C57.9345 26.8653 58.1797 26.6351 58.2682 26.318C58.399 25.8429 58.1169 25.3537 57.6418 25.223C53.235 24.0234 49.5342 20.8432 47.4969 16.5021C47.2885 16.0554 46.7571 15.8641 46.3105 16.0726C45.8639 16.281 45.6726 16.8123 45.881 17.259C48.1439 22.0777 52.2577 25.6053 57.1732 26.9445C57.3312 26.9867 57.4905 26.984 57.6358 26.9452Z" fill="#008D3C"/>
<path d="M54.3484 26.8742L67.377 23.5574C71.3351 21.418 72.8861 17.7263 71.6259 14.0132C70.7051 11.3029 67.5117 9.70314 64.1123 10.6571C60.1758 11.7637 59.2254 14.7922 58.2131 17.4728C55.9607 23.4284 54.3495 26.8783 54.3495 26.8783L54.3484 26.8742Z" fill="#26CB7A"/>
<path d="M60.4036 28.7285C60.5572 28.6874 60.6996 28.6049 60.8173 28.48C64.5645 24.5386 66.794 19.9763 66.9312 15.9693C66.946 15.4763 66.5642 15.0627 66.0711 15.0479C65.5781 15.0331 65.1645 15.415 65.1497 15.908C65.0911 17.5998 64.4264 22.0947 59.524 27.2521C59.184 27.6099 59.1975 28.1754 59.5552 28.5154C59.7881 28.7376 60.1091 28.8073 60.3995 28.7296L60.4036 28.7285Z" fill="#008D3C"/>
<path d="M88.6926 26.3543C87.1422 26.6579 85.9517 26.9275 84.429 27.3349C84.0514 27.436 83.8285 27.8157 83.925 28.1767L88.3319 44.5149C88.4285 44.8759 88.8154 45.0925 89.1919 44.9873C90.7145 44.5799 91.8773 44.2065 93.3711 43.6913C95.9434 42.803 97.4626 40.2224 96.9785 37.6488C96.4739 34.965 95.7649 32.3315 94.8495 29.7577C93.9713 27.2895 91.3603 25.8228 88.6915 26.3501L88.6926 26.3543Z" fill="#8AA7FF"/>
<path d="M88.6281 29.3504C87.4837 29.5765 87.0909 29.6371 85.5309 30.0545C84.9666 30.2055 84.6082 30.7104 84.7347 31.1834L87.0891 39.9168C87.2157 40.3898 87.7825 40.6472 88.3456 40.492C89.9034 40.0664 90.2729 39.9186 91.3762 39.5389C92.5935 39.1199 93.3861 38.0942 93.2522 37.1119C93.0037 35.3022 92.167 32.1915 91.4756 30.5047C91.0969 29.5879 89.8961 29.1045 88.6333 29.3534L88.6281 29.3504Z" fill="#B7CCFF"/>
<path d="M36.262 47.8387C35.2529 44.0672 34.9757 42.4163 34.6621 39.2502C34.225 34.8411 36.6236 30.7448 40.7331 28.7561C44.0634 27.1449 52.6104 24.5425 58.6223 22.934C64.6342 21.3255 73.343 19.3112 77.0287 19.0453C81.5823 18.7162 85.7059 21.0675 87.5289 25.1058C88.8382 28.0055 89.4224 29.5742 90.4315 33.3457C91.4405 37.1171 91.7177 38.768 92.0313 41.9342C92.4684 46.3432 90.0698 50.4395 85.9603 52.4282C82.63 54.0395 74.0831 56.6419 68.0711 58.2504C62.0592 59.8589 53.3505 61.8732 49.6647 62.1391C45.1111 62.4682 40.9875 60.1169 39.1646 56.0786C37.8552 53.1789 37.271 51.6101 36.262 47.8387Z" fill="#8AA7FF"/>
<path d="M66.9445 46.5629L75.1795 44.373C79.2478 43.2934 81.3084 40.3768 81.1797 37.3035C81.06 34.3967 80.4866 32.5361 79.3848 29.5808C78.4975 27.1951 76.3692 26.6352 74.1982 27.2116L60.2259 30.9232C58.059 31.4985 56.7683 33.7201 57.3447 35.8911L58.8333 41.4549C60.0144 45.8695 62.8763 47.6425 66.9445 46.5629Z" fill="#B7CCFF"/>
<path d="M74.5031 37.0614L76.2789 36.5863C77.2271 36.3415 78.1737 36.8218 78.399 37.6641C78.6244 38.5063 78.0358 39.3974 77.0929 39.6452L75.3171 40.1203C74.3689 40.3651 73.4223 39.8848 73.197 39.0425C72.9716 38.2003 73.5602 37.3092 74.5031 37.0614Z" fill="#8AA7FF"/>
<path d="M66.1613 39.2723L67.9371 38.7972C68.8853 38.5524 69.8319 39.0327 70.0572 39.875C70.2826 40.7172 69.694 41.6083 68.7511 41.8561L66.9753 42.3312C66.0271 42.576 65.0805 42.0957 64.8552 41.2535C64.6298 40.4112 65.2184 39.5202 66.1613 39.2723Z" fill="#8AA7FF"/>
<path d="M53.753 40.8399C52.4515 41.1881 51.1141 40.4153 50.7659 39.1138C50.4176 37.8122 51.1905 36.4748 52.492 36.1266C53.7935 35.7784 55.1309 36.5512 55.4791 37.8527C55.8274 39.1543 55.0546 40.4917 53.753 40.8399Z" fill="black"/>
<path d="M85.0919 32.4571C83.7904 32.8053 82.453 32.0325 82.1047 30.731C81.7565 29.4294 82.5293 28.092 83.8309 27.7438C85.1324 27.3956 86.4698 28.1684 86.818 29.4699C87.1662 30.7715 86.3934 32.1089 85.0919 32.4571Z" fill="black"/>
<path d="M59.208 55.2262C60.8921 55.2558 62.4006 54.4965 63.385 53.5396C64.3603 52.5984 64.8374 51.4571 64.4962 50.6636C63.9282 49.3217 56.3641 48.7846 54.9683 49.6827C54.4385 50.0289 54.2695 50.7099 54.4209 51.4919C54.7365 53.137 56.4673 55.1859 59.205 55.2315L59.208 55.2262Z" fill="#E9459D"/>
<path d="M33.0372 41.2466C34.5321 40.7355 35.6982 40.3746 37.2209 39.9672C37.5985 39.8662 37.9813 40.0839 38.0779 40.4448L42.4183 56.8008C42.5149 57.1618 42.2878 57.5427 41.9091 57.6395C40.3864 58.0469 39.1926 58.3041 37.641 58.6036C34.9689 59.1185 32.364 57.6413 31.4982 55.1698C30.5953 52.5926 29.8946 49.9568 29.4024 47.2698C28.9308 44.6928 30.4605 42.1183 33.0361 41.2425L33.0372 41.2466Z" fill="#8AA7FF"/>
<path d="M34.5945 43.8044C35.6989 43.4289 36.0695 43.2853 37.6295 42.8679C38.1938 42.717 38.7564 42.9755 38.883 43.4484L41.2042 52.1907C41.3307 52.6637 40.9682 53.1697 40.4028 53.3165C38.8405 53.7256 38.4466 53.7821 37.3011 54.0041C36.0373 54.2489 34.8384 53.756 34.4638 52.8381C33.7755 51.1461 32.9471 48.0332 32.7038 46.2265C32.5741 45.2431 33.3731 44.2246 34.5914 43.8097L34.5945 43.8044Z" fill="#B7CCFF"/>
<path d="M59.2086 55.2265C60.8926 55.2561 62.4012 54.4968 63.3856 53.5399C62.1189 52.6606 60.3476 51.9563 58.3272 51.6165C56.9345 51.38 55.6057 51.3488 54.4245 51.487C54.7401 53.132 56.4709 55.1809 59.2086 55.2265Z" fill="#FFADD6"/>
<defs>
<linearGradient id="paint0_linear_23830_25397" x1="75.5212" y1="56.5407" x2="121.898" y2="19.6197" gradientUnits="userSpaceOnUse">
<stop offset="0.09" stop-color="#8AA7FF"/>
<stop offset="1" stop-color="#4970DE"/>
</linearGradient>
</defs>
</svg>
