<svg width="107" height="126" viewBox="0 0 107 126" fill="none" xmlns="http://www.w3.org/2000/svg">
<path d="M29.9477 69.8122C21.0632 67.3275 6.74833 65.6639 3.52192 66.7712C0.465054 67.8202 -0.76405 74.2518 0.480949 78.8874C1.51933 82.7602 3.96694 84.3336 9.03171 84.429C14.5733 84.535 26.8008 86.1508 37.1157 87.772L29.953 69.8122H29.9477Z" fill="url(#paint0_linear_23830_25376)"/>
<path d="M47.4731 49.4936C42.9488 42.4475 29.1001 25.6956 29.1001 25.6956C29.1001 25.6956 28.2366 24.0268 27.4048 21.6268C26.8909 20.1487 26.2976 18.8084 25.6088 18.4163C24.4221 17.7435 22.3983 17.966 22.2712 19.121C22.0222 21.3408 22.0805 23.3539 22.0805 23.3539C22.0805 23.3539 16.7826 22.6334 14.5098 23.2904C12.237 23.9473 9.20132 26.7181 10.5947 28.7419C12.0039 30.7975 16.4965 33.2981 19.1931 35.0305C20.3269 37.3456 30.8378 56.7146 40.0667 65.6045L47.4731 49.4884V49.4936Z" fill="url(#paint1_linear_23830_25376)"/>
<path d="M28.8986 81.9427C34.9169 91.5901 57.8885 95.4576 67.9651 88.9041C76.3357 83.4632 71.0749 64.8889 68.4789 55.554L41.4333 50.2773C33.2216 56.7302 22.2179 71.2251 28.8986 81.9427Z" fill="#86A4FF"/>
<path d="M62.7575 89.0639C63.4727 105.493 59.3192 119.919 55.3087 124.358C53.3379 126.541 46.4029 125.974 43.4149 123.071C39.9501 119.701 39.4521 117.863 41.264 111.797C43.0812 105.731 45.0361 96.9895 46.1381 90.7327L62.7575 89.0586V89.0639Z" fill="#86A4FF"/>
<path d="M89.3523 83.2468C85.6014 82.2032 74.1792 84.2269 73.7024 85.9329C73.2256 87.6388 80.5049 94.4518 84.7909 95.8081C88.5047 96.9842 92.8383 95.4002 93.8078 91.9301C94.7773 88.4599 93.0979 84.2905 89.3523 83.2468Z" fill="#86A4FF"/>
<path d="M67.3887 54.2611C65.0365 55.3365 53.3653 59.8027 48.1257 59.6384C44.2159 59.5166 42.1921 58.2981 41.7259 55.1935C41.2861 52.2638 42.3139 48.5977 42.3139 48.5977L67.394 54.2664L67.3887 54.2611Z" fill="#527FFA"/>
<path d="M84.2082 40.4979C84.8069 36.7417 85.5221 35.4331 85.5327 32.3392C85.5433 28.0267 82.9791 24.3288 79.0216 22.8507C75.8164 21.6587 67.1173 19.7462 61.4433 18.8455C55.7692 17.9449 47.584 16.9489 44.1669 17.0919C39.9498 17.272 36.3632 19.9952 35.044 24.101C34.0957 27.0466 33.693 28.6307 33.0997 32.3869C32.501 36.1431 32.395 37.7748 32.3844 40.8688C32.3738 45.1812 34.938 48.8791 38.8955 50.3573C42.1007 51.5493 50.1959 53.1386 55.8646 54.034C61.5386 54.9346 70.3331 56.2538 73.7502 56.1108C77.9673 55.9306 81.554 53.2075 82.8732 49.1017C83.8215 46.156 84.2241 44.572 84.8175 40.8158L84.2082 40.4926V40.4979Z" fill="#86A4FF"/>
<path d="M52.9984 37.5525C47.0807 36.8214 44.4953 36.3446 42.1378 35.9049C39.5153 35.4175 37.7353 33.9129 37.5604 30.8401C37.4386 28.6415 37.926 25.484 38.9008 22.4801C39.8173 19.6722 41.9471 19.063 45.3695 19.3067C49.6396 19.6139 55.499 20.4033 59.34 21.3834C62.0207 22.0668 62.9107 25.1131 62.3916 27.1793C61.8724 29.2455 61.422 31.4176 60.2565 33.95C59.091 36.4823 56.7917 38.0187 52.9984 37.5472V37.5525Z" fill="#B7CCFF"/>
<path d="M44.1038 26.8138L42.1489 26.5065C41.1105 26.3423 40.0774 26.9727 39.8496 27.9104C39.6218 28.8481 40.2735 29.7382 41.3171 29.9024L43.272 30.2097C44.3104 30.3739 45.3435 29.7435 45.5713 28.8058C45.7991 27.868 45.1475 26.978 44.1038 26.8138Z" fill="#86A4FF"/>
<path d="M53.2698 28.2474L51.3149 27.9401C50.2765 27.7758 49.2435 28.4063 49.0156 29.344C48.7825 30.2817 49.4395 31.1718 50.4831 31.336L52.4381 31.6433C53.4764 31.8075 54.5095 31.1771 54.7373 30.2394C54.9651 29.3016 54.3135 28.4116 53.2698 28.2474Z" fill="#86A4FF"/>
<path d="M73.2309 31.713C72.8866 32.4017 71.6628 31.8084 69.6072 31.4852C67.5516 31.1568 66.0682 31.5594 65.8086 30.6217C65.5225 29.5886 67.5357 28.3224 70.0098 28.725C72.3144 29.1012 73.7607 30.6588 73.2309 31.7183V31.713Z" fill="black"/>
<path d="M88.9391 34.8439C87.4398 34.4995 86.2689 34.2664 84.7538 34.028C84.3776 33.9697 84.0279 34.2187 83.9697 34.579L81.4214 50.8752C81.3631 51.2355 81.6227 51.5799 81.9989 51.6381C83.5141 51.8765 84.7008 52.009 86.2319 52.1414C88.8755 52.3692 91.2489 50.6739 91.8423 48.1892C92.4569 45.5986 92.8701 42.9761 93.0714 40.3166C93.2674 37.7683 91.5244 35.4319 88.9391 34.8386V34.8439Z" fill="#86A4FF"/>
<path d="M87.3024 36.4929C86.3223 36.2704 85.9938 36.1803 84.6216 35.9631C84.1236 35.8836 83.668 36.1538 83.6045 36.5723L82.3965 44.2542C82.333 44.6675 82.6826 45.0701 83.1806 45.1443C84.5528 45.3509 84.8918 45.3668 85.8931 45.4569C86.9951 45.5522 87.9805 45.0277 88.2136 44.2066C88.648 42.702 89.0824 39.963 89.1248 38.3948C89.1513 37.5418 88.3778 36.7419 87.2971 36.4929H87.3024Z" fill="#B7CCFF"/>
<path d="M63.7695 56.339C70.5561 51.4279 89.5648 40.8904 89.5648 40.8904C89.5648 40.8904 90.6244 39.7831 91.684 37.4733C92.1184 36.525 92.7276 35.6614 93.5117 35.5501C94.8574 35.3594 96.0017 36.0746 96.1607 37.2826C96.452 39.4971 96.5474 41.4679 96.5474 41.4679C96.5474 41.4679 102.497 43.0255 104.378 44.4665C106.253 45.9128 108.171 49.9286 106.11 51.2689C104.33 52.4239 101.008 53.1285 98.248 53.3086C95.4878 53.4887 94.0945 53.4517 94.0945 53.4517C89.2363 58.5535 76.6274 69.1387 64.7867 74.0498L63.7748 56.339H63.7695Z" fill="url(#paint2_linear_23830_25376)"/>
<path d="M69.3603 15.9852C69.3603 15.9852 74.2714 19.0526 77.2753 17.2937C80.2792 15.5348 83.4314 11.2118 80.5759 8.27677C77.715 5.34705 74.7111 4.68481 72.2211 6.00398C69.7311 7.32315 65.9167 9.4476 65.9167 9.4476L69.3603 15.9799V15.9852Z" fill="#55F186"/>
<path d="M69.9429 15.9697C70.0753 15.9697 70.2078 15.9485 70.3349 15.9008C74.748 14.3167 81.3704 7.33414 82.8008 1.44291C82.9544 0.817764 82.5677 0.187323 81.9425 0.033685C81.3174 -0.119953 80.6869 0.266789 80.5333 0.891937C79.3148 5.89313 73.3123 12.3512 69.5455 13.7022C68.9363 13.9194 68.6237 14.5869 68.8409 15.1962C69.0104 15.673 69.4608 15.9697 69.9376 15.9697H69.9429Z" fill="#008D3C"/>
<path d="M77.2749 17.2926C77.2749 17.2926 74.1968 19.3429 68.2579 17.2185C63.76 15.6079 59.3151 13.261 57.9959 10.6226C56.6768 7.98427 56.4543 4.75787 58.2873 2.99898C60.1204 1.24008 62.6369 1.6957 64.4435 2.63342C66.4249 3.66121 68.3268 5.934 69.9427 9.30345C71.5532 12.6729 73.2432 17.8807 77.2749 17.2926Z" fill="#26CB7A"/>
<path d="M56.3321 47.5076C57.7307 48.0321 59.4631 48.1804 61.0842 47.5712C63.7968 46.554 65.349 43.6719 65.6616 41.415C65.8629 39.9369 65.5292 38.7237 64.6391 38.48C62.7902 37.9767 54.2129 42.0614 53.5772 44.366C53.2646 45.4997 54.5149 46.8189 56.3374 47.5023L56.3321 47.5076Z" fill="#EB459F"/>
<path d="M56.3321 47.5066C57.7307 48.0311 59.4631 48.1794 61.0843 47.5702C63.7968 46.553 65.349 43.671 65.6616 41.4141C64.3054 41.7319 62.8485 42.2988 61.4127 43.0988C59.1717 44.3438 57.397 45.9385 56.3374 47.5013L56.3321 47.5066Z" fill="#FFA8D2"/>
<defs>
<linearGradient id="paint0_linear_23830_25376" x1="42.101" y1="75.9736" x2="-0.313731" y2="78.31" gradientUnits="userSpaceOnUse">
<stop stop-color="#698EFF"/>
<stop offset="0.17" stop-color="#5D86FC"/>
<stop offset="0.42" stop-color="#5480FA"/>
<stop offset="0.8" stop-color="#527FFA"/>
</linearGradient>
<linearGradient id="paint1_linear_23830_25376" x1="39.3992" y1="52.1903" x2="-24.0005" y2="-26.5" gradientUnits="userSpaceOnUse">
<stop stop-color="#86A4FF"/>
<stop offset="0.32" stop-color="#86A4FF"/>
<stop offset="0.56" stop-color="#527FFA"/>
</linearGradient>
<linearGradient id="paint2_linear_23830_25376" x1="62.7364" y1="61.7693" x2="130.411" y2="32.9171" gradientUnits="userSpaceOnUse">
<stop offset="0.06" stop-color="#698EFF"/>
<stop offset="0.48" stop-color="#88A7FF"/>
<stop offset="1" stop-color="#B7CCFF"/>
</linearGradient>
</defs>
</svg>
